<svg width="566" height="463" viewBox="0 0 566 463" fill="none" xmlns="http://www.w3.org/2000/svg">
<path d="M277.445 111.629C282.439 111.31 331.741 111.715 335.355 112.104C336.854 112.266 332.252 118.971 313.931 143.31C285.124 181.58 273.006 197.372 247.942 229.31C237.152 243.06 223.428 260.835 217.445 268.81C211.462 276.785 198.188 294.11 187.947 307.31C177.706 320.51 165.562 336.485 160.959 342.81C154.142 352.179 111.181 410.019 107.667 414.56C106.894 415.559 143.087 415.81 287.879 415.81H469.059L467.252 412.749C466.258 411.066 453.812 393.854 439.593 374.499C411.74 336.587 399.945 319.973 399.945 318.647C399.952 318.187 413.84 317.81 430.812 317.81H461.68L464.486 322.06C467.024 325.903 477.847 340.658 513.081 388.31C519.588 397.11 534.065 417.36 545.252 433.31L565.592 462.31L384.019 462.539C284.154 462.665 156.896 462.44 101.223 462.039L0 461.31L9.11523 449.31C14.1283 442.71 25.8967 427.185 35.2666 414.81C44.6356 402.435 58.1699 385.11 65.3418 376.31C72.5138 367.51 84.6601 351.985 92.334 341.81C100.008 331.635 110.856 317.685 116.44 310.81C122.025 303.935 135.088 287.285 145.469 273.81C155.851 260.335 169.573 242.785 175.965 234.81C182.357 226.835 196.745 208.61 207.938 194.31C219.132 180.01 236.742 157.51 247.072 144.31C257.402 131.11 267.336 118.429 269.149 116.129C272.127 112.351 272.927 111.917 277.445 111.629ZM430.195 0.0529867C497.698 -0.0879913 552.928 0.0620533 552.945 0.387948C552.945 1.44595 460.201 120.814 424.807 165.31C401.976 194.012 390.453 208.622 286.611 340.533C279.587 349.456 273.303 357.089 272.646 357.495C271.545 358.176 202.835 358.029 202.146 357.345C201.979 357.178 205.377 352.602 209.696 347.176C214.015 341.749 224.829 327.635 233.725 315.81C242.621 303.985 266.844 272.485 287.555 245.81C344.399 172.596 385.461 119.151 406.64 90.8098C417.121 76.7849 428.929 61.1468 432.881 56.0598L440.068 46.8098H125.708L128.164 50.0598C137.78 62.7788 146.44 74.9189 157.948 91.8098C165.255 102.535 172.519 112.95 174.089 114.954C175.66 116.958 176.945 118.871 176.945 119.204C176.939 119.537 164.148 119.81 148.515 119.81H120.084L97.3105 88.5598C75.6375 58.8208 40.4884 11.0117 35.1895 4.06373L32.7129 0.816659L170.079 0.563729C245.63 0.423729 362.682 0.193987 430.195 0.0529867Z" fill="white"/>
</svg>
